<svg width="24" height="24" viewBox="0 0 24 24" fill="none" xmlns="http://www.w3.org/2000/svg">
<path d="M22.7071 1.29289L23.4142 0.585787L23.4142 0.585785L22.7071 1.29289ZM22.7071 2.70711L23.4142 3.41421V3.41421L22.7071 2.70711ZM21.2929 1.29289L20.5858 0.585785L20.5858 0.585786L21.2929 1.29289ZM12 10.5858L11.2929 11.2929C11.6834 11.6834 12.3166 11.6834 12.7071 11.2929L12 10.5858ZM2.70711 1.29289L2 2L2 2L2.70711 1.29289ZM1.29289 1.29289L2 2L2 2L1.29289 1.29289ZM1.29289 2.70711L2 2L2 2L1.29289 2.70711ZM10.5858 12L11.2929 12.7071C11.6834 12.3166 11.6834 11.6834 11.2929 11.2929L10.5858 12ZM1.29289 21.2929L0.585786 20.5858L0.585785 20.5858L1.29289 21.2929ZM1.29289 22.7071L0.585785 23.4142L0.585787 23.4142L1.29289 22.7071ZM2.70711 22.7071L3.41421 23.4142H3.41421L2.70711 22.7071ZM12 13.4142L12.7071 12.7071C12.5196 12.5196 12.2652 12.4142 12 12.4142C11.7348 12.4142 11.4804 12.5196 11.2929 12.7071L12 13.4142ZM21.2929 22.7071L20.5858 23.4142L20.5858 23.4142L21.2929 22.7071ZM22.7071 22.7071L23.4142 23.4142L23.4142 23.4142L22.7071 22.7071ZM22.7071 21.2929L23.4142 20.5858L23.4142 20.5858L22.7071 21.2929ZM13.4142 12L12.7071 11.2929C12.5196 11.4804 12.4142 11.7348 12.4142 12C12.4142 12.2652 12.5196 12.5196 12.7071 12.7071L13.4142 12ZM22 2V2L23.4142 3.41421C24.1953 2.63316 24.1953 1.36684 23.4142 0.585787L22 2ZM22 2H22L23.4142 0.585785C22.6332 -0.195262 21.3668 -0.195262 20.5858 0.585785L22 2ZM12.7071 11.2929L22 2L20.5858 0.585786L11.2929 9.87868L12.7071 11.2929ZM2 2L11.2929 11.2929L12.7071 9.87868L3.41421 0.585786L2 2ZM2 2H2L3.41421 0.585786C2.63317 -0.195262 1.36683 -0.195262 0.585786 0.585786L2 2ZM2 2V2L0.585786 0.585786C-0.195262 1.36683 -0.195262 2.63317 0.585786 3.41421L2 2ZM11.2929 11.2929L2 2L0.585786 3.41421L9.87868 12.7071L11.2929 11.2929ZM2 22L11.2929 12.7071L9.87868 11.2929L0.585786 20.5858L2 22ZM2 22V22L0.585785 20.5858C-0.195262 21.3668 -0.195262 22.6332 0.585785 23.4142L2 22ZM2 22H2L0.585787 23.4142C1.36684 24.1953 2.63316 24.1953 3.41421 23.4142L2 22ZM11.2929 12.7071L2 22L3.41421 23.4142L12.7071 14.1213L11.2929 12.7071ZM22 22L12.7071 12.7071L11.2929 14.1213L20.5858 23.4142L22 22ZM22 22H22L20.5858 23.4142C21.3668 24.1953 22.6332 24.1953 23.4142 23.4142L22 22ZM22 22V22L23.4142 23.4142C24.1953 22.6332 24.1953 21.3668 23.4142 20.5858L22 22ZM12.7071 12.7071L22 22L23.4142 20.5858L14.1213 11.2929L12.7071 12.7071ZM22 2L12.7071 11.2929L14.1213 12.7071L23.4142 3.41421L22 2Z" fill="black"/>
</svg>
